# xmcd
#
# Track frame offsets: 
#        150
#        14909
#        32578
#        50356
#        68387
#        84684
#        101785
#        118658
#        137434
#        153219
#        169153
#        185436
#        200709
#        218608
#
# Disc length: 3279 seconds
#
# Revision: 20
# Processed by: cddbd v1.5.2PL0 Copyright (c) Steve Scherf et al.
# Submitted via: ExactAudioCopyFreeDBPlugin 1.0
#
DISCID=bd0ccd0e
DTITLE=Sugababes - Angels With Dirty Faces
DYEAR=2002
DGENRE=Pop
TTITLE0=Freak Like Me
TTITLE1=Blue
TTITLE2=Round Round
TTITLE3=Stronger
TTITLE4=Supernatural
TTITLE5=Angels With Dirty Faces
TTITLE6=Virgin Sexy
TTITLE7=Shape
TTITLE8=Just Don't Need This
TTITLE9=No Man No Cry
TTITLE10=Switch
TTITLE11=More Than A Million Miles
TTITLE12=Breathe Easy (Acoustic Jam)
TTITLE13=Round Round (Alternative Mix)
EXTD=YEAR: 2002 ID3G:  12
EXTT0=
EXTT1=
EXTT2=
EXTT3=
EXTT4=
EXTT5=
EXTT6=
EXTT7=
EXTT8=
EXTT9=
EXTT10=
EXTT11=
EXTT12=
EXTT13=
PLAYORDER=
